<?xml version="1.0" standalone="no"?>
<!DOCTYPE svg PUBLIC "-//W3C//DTD SVG 20010904//EN"
 "http://www.w3.org/TR/2001/REC-SVG-20010904/DTD/svg10.dtd">
<svg version="1.0" xmlns="http://www.w3.org/2000/svg"
 width="1200.000000pt" height="1200.000000pt" viewBox="0 0 1200.000000 1200.000000"
 preserveAspectRatio="xMidYMid meet">
<metadata>
Created by potrace 1.16, written by Peter Selinger 2001-2019
</metadata>
<g transform="translate(0.000000,1200.000000) scale(0.100000,-0.100000)"
fill="#000000" stroke="none">
<path d="M0 6000 l0 -6000 6000 0 6000 0 0 6000 0 6000 -6000 0 -6000 0 0
-6000z m8590 2585 l2585 -2585 -2588 -2588 -2587 -2587 -2587 2587 -2588 2588
2585 2585 c1422 1422 2587 2585 2590 2585 3 0 1168 -1163 2590 -2585z"/>
<path d="M3505 8490 l-2490 -2490 2493 -2493 2492 -2492 2492 2492 2493 2493
-2490 2490 c-1369 1369 -2492 2490 -2495 2490 -3 0 -1126 -1121 -2495 -2490z
m2561 2144 c106 -50 110 -202 8 -262 -106 -62 -235 23 -221 146 11 104 117
161 213 116z m-2662 -3527 c-4 -7 -26 -37 -49 -67 -43 -58 -75 -106 -75 -114
0 -2 26 -35 58 -73 31 -38 64 -79 72 -92 15 -22 18 -17 67 140 28 90 56 183
62 207 13 48 26 53 43 17 6 -14 15 -25 19 -25 4 0 12 -19 17 -42 6 -24 33
-108 61 -187 28 -80 49 -146 47 -148 -2 -2 -17 -8 -34 -13 -29 -8 -32 -6 -43
25 l-12 32 -43 -18 c-44 -20 -74 -17 -74 7 0 16 38 43 70 49 13 2 25 6 27 9 3
2 -6 37 -18 76 -26 81 -22 85 -69 -65 -18 -55 -35 -103 -38 -106 -4 -4 -34 -9
-67 -13 l-60 -6 -55 71 c-30 40 -67 86 -82 104 -16 18 -28 39 -28 48 0 16 105
181 134 209 16 16 20 17 47 2 18 -9 27 -19 23 -27z m2068 18 c6 -14 15 -25 19
-25 4 0 12 -19 17 -42 6 -24 33 -108 61 -187 28 -80 49 -146 47 -148 -2 -2
-17 -8 -34 -13 -29 -8 -32 -6 -43 25 l-12 32 -43 -18 c-44 -20 -74 -17 -74 7
0 16 38 43 70 49 13 2 25 6 27 9 3 3 -6 37 -19 77 l-24 73 -28 -89 c-45 -149
-50 -160 -81 -163 -15 -2 -31 0 -36 5 -4 4 16 85 46 178 29 94 58 189 65 213
12 48 25 53 42 17z m554 -70 c16 -35 32 -65 35 -65 3 0 20 34 38 75 34 78 48
88 84 61 17 -13 17 -17 -11 -73 -69 -138 -81 -181 -75 -272 l6 -84 -33 7 c-19
3 -35 8 -37 9 -2 2 -5 44 -8 94 -4 92 -19 142 -70 243 -31 61 -31 78 -2 89 27
11 34 3 73 -84z m316 70 c6 -14 15 -25 19 -25 4 0 12 -19 17 -42 6 -24 33
-108 61 -187 28 -80 49 -146 47 -148 -2 -2 -17 -8 -34 -13 -29 -8 -32 -6 -43
25 l-12 32 -43 -18 c-44 -20 -74 -17 -74 7 0 16 38 43 70 49 13 2 25 6 27 9 3
3 -6 37 -19 77 l-24 73 -28 -89 c-45 -149 -50 -160 -81 -163 -15 -2 -31 0 -36
5 -4 4 16 85 46 178 29 94 58 189 65 213 12 48 25 53 42 17z m770 0 c6 -14 15
-25 19 -25 4 0 12 -19 17 -42 6 -24 33 -108 61 -187 28 -80 49 -146 47 -148
-2 -2 -17 -8 -34 -13 -29 -8 -32 -6 -43 25 l-12 32 -43 -18 c-44 -20 -74 -17
-74 7 0 16 38 43 70 49 13 2 25 6 27 9 3 3 -6 37 -19 77 l-24 73 -28 -89 c-45
-149 -50 -160 -81 -163 -15 -2 -31 0 -36 5 -4 4 16 85 46 178 29 94 58 189 65
213 12 48 25 53 42 17z m-3110 -60 c4 -33 5 -122 4 -197 -3 -109 -7 -143 -21
-164 -15 -23 -30 -25 -30 -6 0 4 -16 32 -36 62 -19 30 -45 72 -58 93 -12 20
-25 37 -28 37 -2 0 -4 -15 -3 -32 1 -18 2 -59 1 -91 -1 -50 -4 -59 -23 -66
-47 -18 -49 -8 -50 209 -1 136 3 205 10 208 6 2 12 -8 14 -23 2 -14 7 -25 12
-25 5 1 20 -18 34 -42 14 -23 43 -67 64 -97 l38 -54 0 130 0 130 33 -6 c31 -7
32 -9 39 -66z m273 -27 c41 -56 75 -108 75 -114 0 -7 -28 -58 -62 -113 -85
-136 -92 -136 -184 -1 l-68 100 17 35 c30 63 121 195 134 195 7 0 47 -46 88
-102z m357 27 c4 -33 5 -122 4 -197 -3 -109 -7 -143 -21 -164 -15 -23 -30 -25
-30 -6 0 4 -16 32 -36 62 -19 30 -45 72 -58 93 -12 20 -25 37 -28 37 -2 0 -4
-15 -3 -32 1 -18 2 -59 1 -91 -1 -50 -4 -59 -23 -66 -47 -18 -49 -8 -50 209
-1 136 3 205 10 208 6 2 12 -8 14 -23 2 -14 7 -25 12 -25 5 1 20 -18 34 -42
14 -23 43 -67 64 -97 l38 -54 0 130 0 130 33 -6 c31 -7 32 -9 39 -66z m603 64
c4 -6 13 -58 21 -117 7 -59 20 -150 28 -202 16 -101 14 -110 -32 -110 -28 0
-28 1 -47 134 -8 60 -17 111 -19 113 -2 3 -7 -11 -11 -29 -3 -18 -10 -44 -15
-58 -5 -14 -16 -51 -25 -83 -14 -50 -19 -58 -38 -55 -21 3 -38 35 -83 161 -9
26 -20 47 -24 47 -4 0 -11 -50 -15 -110 -4 -61 -10 -112 -14 -114 -3 -2 -18
-2 -34 1 -26 5 -27 8 -27 62 0 31 8 125 17 209 l17 153 35 -3 36 -3 44 -129
44 -129 23 89 c37 142 48 168 75 175 35 10 37 10 44 -2z m657 -64 c4 -33 5
-122 4 -197 -3 -109 -7 -143 -21 -164 -15 -23 -30 -25 -30 -6 0 4 -16 32 -36
62 -19 30 -45 72 -58 93 -12 20 -25 37 -28 37 -2 0 -4 -15 -3 -32 1 -18 2 -59
1 -91 -1 -50 -4 -59 -23 -66 -47 -18 -49 -8 -50 209 -1 136 3 205 10 208 6 2
12 -8 14 -23 2 -14 7 -25 12 -25 5 1 20 -18 34 -42 14 -23 43 -67 64 -97 l38
-54 0 130 0 130 33 -6 c31 -7 32 -9 39 -66z m1499 51 c56 -39 126 -115 132
-141 5 -26 1 -33 -29 -53 l-35 -23 26 -42 c56 -91 69 -125 55 -141 -27 -33
-47 -18 -91 64 -24 44 -45 80 -48 80 -21 -1 -30 -24 -33 -80 -3 -60 -5 -65
-30 -74 -15 -5 -30 -7 -34 -3 -3 3 -8 103 -11 222 l-6 217 44 -7 c24 -4 51
-13 60 -19z m407 8 c19 -4 22 -9 16 -27 -9 -30 -8 -30 -58 -29 l-46 1 -2 -182
-3 -182 -32 -3 -33 -3 -1 153 c-1 84 0 168 1 186 2 32 1 32 -44 32 -34 0 -46
4 -47 15 -1 8 -2 21 -3 28 -1 6 15 14 34 17 38 6 181 2 218 -6z m294 -59 c4
-33 5 -122 4 -197 -3 -109 -7 -143 -21 -164 -15 -23 -30 -25 -30 -6 0 4 -16
32 -36 62 -19 30 -45 72 -58 93 -12 20 -25 37 -28 37 -2 0 -4 -15 -3 -32 1
-18 2 -59 1 -91 -1 -50 -4 -59 -23 -66 -47 -18 -49 -8 -50 209 -1 136 3 205
10 208 6 2 12 -8 14 -23 2 -14 7 -25 12 -25 5 1 20 -18 34 -42 14 -23 43 -67
64 -97 l38 -54 0 130 0 130 33 -6 c31 -7 32 -9 39 -66z m193 -18 c-25 -34 -54
-78 -65 -98 l-19 -36 45 -54 c69 -82 106 -138 99 -149 -3 -6 -19 -10 -34 -10
-22 0 -37 14 -81 71 -30 39 -68 87 -84 106 l-29 34 23 42 c26 47 84 131 113
164 18 21 22 21 49 7 l29 -15 -46 -62z m206 69 c56 -39 126 -115 132 -141 5
-26 1 -33 -29 -53 l-35 -23 26 -42 c56 -91 69 -125 55 -141 -27 -33 -47 -18
-91 64 -24 44 -45 80 -48 80 -21 -1 -30 -24 -33 -80 -3 -60 -5 -65 -30 -74
-15 -5 -31 -7 -34 -3 -4 4 -9 104 -12 223 l-4 216 43 -7 c24 -4 51 -13 60 -19z
m-1641 -33 c95 -53 118 -72 113 -92 -2 -10 -42 -56 -89 -102 -79 -78 -84 -86
-84 -125 0 -29 -5 -44 -16 -48 -26 -10 -54 -7 -55 7 -1 14 -1 160 0 305 l1
102 33 -5 c17 -4 61 -22 97 -42z m1930 -48 l-51 -52 60 -52 c88 -76 88 -82 0
-162 -41 -38 -79 -68 -85 -69 -6 0 -19 9 -29 20 -18 20 -18 21 41 76 l59 55
-68 63 c-81 75 -81 74 15 160 l62 56 23 -22 23 -22 -50 -51z m70 -960 l0 -75
-2850 0 -2850 0 0 75 0 75 2850 0 2850 0 0 -75z m-2904 -872 l41 -22 59 24
c50 21 76 25 167 25 104 0 112 -2 200 -39 107 -46 219 -71 312 -71 l65 0 0
-274 0 -274 -82 -27 c-46 -15 -140 -54 -210 -87 -97 -47 -128 -66 -132 -84 -3
-12 -18 -36 -32 -53 -34 -41 -315 -230 -376 -253 -59 -22 -149 -23 -193 -2
-19 9 -113 105 -226 230 -175 196 -199 219 -261 250 l-68 34 0 270 0 270 64 0
c111 0 211 24 351 85 55 23 70 25 170 22 89 -2 118 -7 151 -24z m120 -3569
c106 -50 110 -202 8 -262 -106 -62 -235 23 -221 146 11 104 117 161 213 116z"/>
<path d="M4151 6979 c-17 -28 -31 -53 -31 -56 0 -10 73 -113 79 -113 4 0 20
24 38 53 l32 52 -20 30 c-10 17 -27 42 -36 57 -10 16 -21 28 -24 28 -3 0 -20
-23 -38 -51z"/>
<path d="M5635 5084 c-90 -35 -169 -56 -257 -69 l-48 -6 0 -183 0 -183 41 -18
c30 -14 91 -74 230 -229 104 -116 200 -217 212 -223 31 -18 65 -16 115 7 l43
20 -36 47 -37 48 39 32 c36 31 63 42 63 26 0 -5 15 -26 34 -48 l33 -39 36 24
35 24 -34 44 c-19 25 -34 48 -34 51 1 3 21 21 45 38 l44 33 37 -51 c34 -46 38
-49 53 -35 9 9 16 33 16 54 0 34 -13 54 -100 161 -55 67 -108 132 -117 144
l-16 21 -59 -47 c-82 -67 -116 -82 -193 -81 -50 0 -76 6 -115 26 -58 30 -135
94 -134 111 0 7 82 79 181 161 166 137 180 150 163 162 -36 27 -141 17 -240
-22z"/>
<path d="M6114 5109 c-37 -11 -92 -52 -278 -208 -74 -63 -133 -118 -130 -122
3 -5 22 -13 43 -19 53 -14 77 -3 188 86 51 41 99 76 105 79 7 2 40 -31 74 -73
34 -42 102 -127 152 -189 49 -61 92 -117 94 -125 4 -9 31 -1 104 34 54 25 123
54 152 63 l52 17 0 179 c0 98 -4 179 -9 179 -48 0 -201 38 -281 70 -84 34
-111 40 -168 39 -37 0 -81 -5 -98 -10z"/>
</g>
</svg>
